<svg width="90" height="30" viewBox="0 0 237 117" fill="none" xmlns="http://www.w3.org/2000/svg">
<path d="M34.4062 100.5V117H1.5V100.5H8.90625L21.75 58.9219H11.9531V42.4219H58.4062L75.0469 100.5H82.4062V117H40.4531V100.5H46.5469L44.5312 92.5312H27.6094L25.5 100.5H34.4062ZM42.2812 81.1875L36.8438 58.3594L30 81.1875H42.2812ZM126.609 117H86.2969V100.219H93.6094V58.9219H86.4844V42.3281H126.422C132.547 42.3281 137.969 43 142.688 44.3438C147.438 45.6562 151.156 47.875 153.844 51C156.562 54.125 157.922 58.4219 157.922 63.8906C157.922 73.4531 155.328 80.3281 150.141 84.5156C144.953 88.7031 137.172 90.7969 126.797 90.7969C124.141 90.7969 121.812 90.6406 119.812 90.3281V100.219H126.609V117ZM119.906 58.9219V75.5156H121.828C128.922 75.5156 132.469 72.3906 132.469 66.1406C132.469 63.8281 131.688 62.0469 130.125 60.7969C128.562 59.5469 126.469 58.9219 123.844 58.9219H119.906ZM205.453 117H165.141V100.219H172.453V58.9219H165.328V42.3281H205.266C211.391 42.3281 216.812 43 221.531 44.3438C226.281 45.6562 230 47.875 232.688 51C235.406 54.125 236.766 58.4219 236.766 63.8906C236.766 73.4531 234.172 80.3281 228.984 84.5156C223.797 88.7031 216.016 90.7969 205.641 90.7969C202.984 90.7969 200.656 90.6406 198.656 90.3281V100.219H205.453V117ZM198.75 58.9219V75.5156H200.672C207.766 75.5156 211.312 72.3906 211.312 66.1406C211.312 63.8281 210.531 62.0469 208.969 60.7969C207.406 59.5469 205.312 58.9219 202.688 58.9219H198.75Z" fill="#4660A4"/>
<path d="M13.5234 33.4219C7.50781 33.4219 4.5 30.2891 4.5 24.0234V14.7656H0.75V7.89844H4.5V2.53125L15.7266 0.0234375V7.89844H20.2266V14.7656H15.7266V23.2031C15.7266 23.9062 15.9922 24.4922 16.5234 24.9609C17.0547 25.4297 17.7188 25.6641 18.5156 25.6641C19.0938 25.6641 19.6641 25.6172 20.2266 25.5234V32.0391C18.1641 32.9609 15.9297 33.4219 13.5234 33.4219ZM38.0859 33.4219C35.1797 33.4219 32.6562 32.8828 30.5156 31.8047C28.3594 30.7422 26.7031 29.2188 25.5469 27.2344C24.4062 25.25 23.8359 22.9297 23.8359 20.2734C23.8359 17.6484 24.3984 15.3672 25.5234 13.4297C26.6328 11.5078 28.2031 10.0234 30.2344 8.97656C32.2656 7.92969 34.6484 7.40625 37.3828 7.40625C39.8984 7.40625 42.1172 7.89844 44.0391 8.88281C45.9609 9.88281 47.4453 11.2969 48.4922 13.125C49.5547 14.9531 50.0859 17.0859 50.0859 19.5234C50.0859 20.3672 49.9609 21.1641 49.7109 21.9141H35.1094C35.1094 23.3828 35.6641 24.5625 36.7734 25.4531C37.8828 26.3281 39.2188 26.7656 40.7812 26.7656C41.9688 26.7656 43.2734 26.5625 44.6953 26.1562C46.1172 25.7344 47.5469 25.0859 48.9844 24.2109L49.3828 24.3516V30.6562C47.7734 31.5781 46.1172 32.2734 44.4141 32.7422C42.7266 33.1953 40.6172 33.4219 38.0859 33.4219ZM35.1094 17.1094V17.7891H41.1094V17.2969C41.1094 16.1875 40.8516 15.2344 40.3359 14.4375C39.8359 13.625 39.0859 13.2188 38.0859 13.2188C37.2578 13.2188 36.5547 13.6328 35.9766 14.4609C35.3984 15.2734 35.1094 16.1562 35.1094 17.1094ZM67.3828 33.4219C64.1797 33.4219 61.3438 32.5781 58.875 30.8906L58.1016 33H53.7422V23.7422H58.9688C59.1719 24.9297 59.7266 25.9922 60.6328 26.9297C61.5391 27.8672 62.5859 28.3359 63.7734 28.3359C64.2266 28.3359 64.6172 28.2109 64.9453 27.9609C65.2891 27.7109 65.4609 27.2969 65.4609 26.7188C65.4609 26.1406 65.1328 25.6172 64.4766 25.1484C63.8047 24.6641 62.8047 24.1094 61.4766 23.4844C59.8672 22.6875 58.5547 21.9609 57.5391 21.3047C56.5078 20.6484 55.6172 19.7891 54.8672 18.7266C54.1172 17.6484 53.7422 16.3594 53.7422 14.8594C53.7422 13.3125 54.25 11.9688 55.2656 10.8281C56.2812 9.70312 57.6172 8.85156 59.2734 8.27344C60.9297 7.69531 62.7344 7.40625 64.6875 7.40625C67.2344 7.40625 69.6016 8.07812 71.7891 9.42188L72.375 7.89844H76.2656V15.375H71.7422C71.3516 14.3594 70.7891 13.5625 70.0547 12.9844C69.3203 12.4062 68.4609 12.1172 67.4766 12.1172C66.3203 12.1172 65.7422 12.4844 65.7422 13.2188C65.7578 13.7188 66.0625 14.1484 66.6562 14.5078C67.25 14.8516 68.2109 15.3203 69.5391 15.9141C70.3672 16.2578 71.125 16.6016 71.8125 16.9453C72.5 17.2891 73.1172 17.6172 73.6641 17.9297C74.7578 18.5703 75.7109 19.4766 76.5234 20.6484C77.3359 21.8047 77.7422 23.25 77.7422 24.9844C77.7422 26.8281 77.2656 28.375 76.3125 29.625C75.3594 30.8906 74.0938 31.8438 72.5156 32.4844C70.9375 33.1094 69.2266 33.4219 67.3828 33.4219ZM93.5859 33.4219C87.5703 33.4219 84.5625 30.2891 84.5625 24.0234V14.7656H80.8125V7.89844H84.5625V2.53125L95.7891 0.0234375V7.89844H100.289V14.7656H95.7891V23.2031C95.7891 23.9062 96.0547 24.4922 96.5859 24.9609C97.1172 25.4297 97.7812 25.6641 98.5781 25.6641C99.1562 25.6641 99.7266 25.6172 100.289 25.5234V32.0391C98.2266 32.9609 95.9922 33.4219 93.5859 33.4219ZM119.344 13.4062V20.4141H103.266V13.4062H119.344Z" fill="#5F5F5F"/>
</svg>
