<svg width="90" height="30" viewBox="0 0 237 117" fill="none" xmlns="http://www.w3.org/2000/svg"><path d="M34.406 100.5V117H1.5v-16.5h7.406L21.75 58.922h-9.797v-16.5h46.453l16.64 58.078h7.36V117H40.453v-16.5h6.094l-2.016-7.969H27.61L25.5 100.5h8.906Zm7.875-19.313L36.844 58.36 30 81.187h12.281ZM126.61 117H86.297v-16.781h7.312V58.922h-7.125V42.328h39.938c6.125 0 11.547.672 16.266 2.016 4.75 1.312 8.468 3.531 11.156 6.656 2.718 3.125 4.078 7.422 4.078 12.89 0 9.563-2.594 16.438-7.781 20.626-5.188 4.187-12.969 6.28-23.344 6.28-2.656 0-4.985-.155-6.985-.468v9.891h6.797V117Zm-6.703-58.078v16.594h1.922c7.094 0 10.641-3.125 10.641-9.375 0-2.313-.781-4.094-2.344-5.344-1.563-1.25-3.656-1.875-6.281-1.875h-3.938ZM205.453 117h-40.312v-16.781h7.312V58.922h-7.125V42.328h39.938c6.125 0 11.546.672 16.265 2.016 4.75 1.312 8.469 3.531 11.157 6.656 2.718 3.125 4.078 7.422 4.078 12.89 0 9.563-2.594 16.438-7.782 20.626-5.187 4.187-12.968 6.28-23.343 6.28-2.657 0-4.985-.155-6.985-.468v9.891h6.797V117Zm-6.703-58.078v16.594h1.922c7.094 0 10.64-3.125 10.64-9.375 0-2.313-.781-4.094-2.343-5.344-1.563-1.25-3.657-1.875-6.281-1.875h-3.938Z" fill="#4660A4"/><path d="M13.523 33.422c-6.015 0-9.023-3.133-9.023-9.399v-9.257H.75V7.898H4.5V2.531L15.727.023v7.875h4.5v6.868h-4.5v8.437c0 .703.265 1.29.796 1.758.532.469 1.196.703 1.993.703.578 0 1.148-.047 1.71-.14v6.515c-2.062.922-4.296 1.383-6.703 1.383Zm24.563 0c-2.906 0-5.43-.54-7.57-1.617-2.157-1.063-3.813-2.586-4.97-4.57-1.14-1.985-1.71-4.305-1.71-6.962 0-2.625.562-4.906 1.687-6.843 1.11-1.922 2.68-3.407 4.711-4.453 2.032-1.047 4.414-1.57 7.149-1.57 2.515 0 4.734.491 6.656 1.476 1.922 1 3.406 2.414 4.453 4.242 1.063 1.828 1.594 3.96 1.594 6.398 0 .844-.125 1.641-.375 2.391H35.109c0 1.469.555 2.648 1.664 3.54 1.11.874 2.446 1.312 4.008 1.312 1.188 0 2.492-.203 3.914-.61 1.422-.422 2.852-1.07 4.29-1.945l.398.14v6.305a21.4 21.4 0 0 1-4.969 2.086c-1.687.453-3.797.68-6.328.68Zm-2.977-16.313v.68h6v-.492c0-1.11-.257-2.063-.773-2.86-.5-.812-1.25-1.218-2.25-1.218-.828 0-1.531.414-2.11 1.242-.578.812-.867 1.695-.867 2.648Zm32.274 16.313c-3.203 0-6.04-.844-8.508-2.531L58.102 33h-4.36v-9.258h5.227c.203 1.188.758 2.25 1.664 3.188.906.937 1.953 1.406 3.14 1.406.454 0 .844-.125 1.172-.375.344-.25.516-.664.516-1.242s-.328-1.102-.984-1.57c-.672-.485-1.672-1.04-3-1.665-1.61-.797-2.922-1.523-3.938-2.18a9.515 9.515 0 0 1-2.672-2.577c-.75-1.079-1.125-2.368-1.125-3.868 0-1.546.508-2.89 1.524-4.03 1.015-1.126 2.351-1.977 4.007-2.556 1.657-.578 3.461-.867 5.414-.867 2.547 0 4.915.672 7.102 2.016l.586-1.524h3.89v7.477h-4.523c-.39-1.016-.953-1.813-1.687-2.39-.735-.579-1.594-.868-2.578-.868-1.157 0-1.735.367-1.735 1.102.016.5.32.93.914 1.289.594.344 1.555.812 2.883 1.406.828.344 1.586.688 2.273 1.031a38.12 38.12 0 0 1 1.852.985c1.094.64 2.047 1.547 2.86 2.718.812 1.157 1.218 2.602 1.218 4.336 0 1.844-.476 3.391-1.43 4.641-.953 1.266-2.218 2.219-3.796 2.86-1.579.624-3.29.937-5.133.937Zm26.203 0c-6.016 0-9.023-3.133-9.023-9.399v-9.257h-3.75V7.898h3.75V2.531L95.788.023v7.875h4.5v6.868h-4.5v8.437c0 .703.266 1.29.797 1.758.531.469 1.195.703 1.992.703.578 0 1.149-.047 1.711-.14v6.515c-2.062.922-4.297 1.383-6.703 1.383Zm25.758-20.016v7.008h-16.078v-7.008h16.078Z" fill="#5F5F5F"/></svg>